<svg xmlns="http://www.w3.org/2000/svg" viewBox="0 0 283.41 283.41"><defs><style>.cls-1{fill:#14113f;}</style></defs><g id="Layer_2" data-name="Layer 2"><g id="Layer_1-2" data-name="Layer 1"><g id="degrees"><path class="cls-1" d="M145.9,56.21l-49.5,71.2a13.94,13.94,0,0,0-2,11.4l22,83.8a12.23,12.23,0,0,0,14.9,8.7,12.41,12.41,0,0,0,7-4.9l49.3-71.2a13.94,13.94,0,0,0,2-11.4L167.6,60a12.26,12.26,0,0,0-15-8.5A12,12,0,0,0,145.9,56.21ZM140.4,0a141.71,141.71,0,0,1,2.6,283.4C64.8,284.21.7,221.31,0,143v-1.3A141.12,141.12,0,0,1,140.4,0Z"/></g></g></g></svg>